<?xml version="1.0" encoding="UTF-8"?>
<svg width="115px" height="95px" viewBox="0 0 115 95" version="1.1" xmlns="http://www.w3.org/2000/svg" xmlns:xlink="http://www.w3.org/1999/xlink">
    <!-- Generator: Sketch 53 (72520) - https://sketchapp.com -->
    <title>Home page in card empty category</title>
    <desc>Created with Sketch.</desc>
    <g id="Home-page-in-card-empty-category" stroke="none" stroke-width="1" fill="none" fill-rule="evenodd">
        <g id="Group" transform="translate(4.000000, 38.000000)">
            <g transform="translate(0.000000, 0.761782)">
                <rect id="Rectangle" fill="#E4EBF1" fill-rule="nonzero" opacity="0.4" x="17.5518823" y="11.4120853" width="37.7295223" height="38.030518"></rect>
                <rect id="Rectangle" fill="#DFE5EC" fill-rule="nonzero" x="55.2814046" y="11.4120853" width="22.9293566" height="38.030518"></rect>
                <path d="M0.0920468571,49.4426034 L43.5478526,49.4426034" id="Path" stroke="#CFD7DF" stroke-width="0.6"></path>
                <path d="M79.6205314,49.4426034 L107.283034,49.4426034" id="Path" stroke="#CFD7DF" stroke-width="0.6"></path>
                <polyline id="Path" stroke="#CFD7DF" stroke-width="0.6" points="17.5518823 11.4120853 6.646752 0.419956927 48.1744183 0.419956927 55.9838674 8.28682449"></polyline>
                <polyline id="Path" stroke="#CFD7DF" stroke-width="0.6" points="78.2107611 11.4120853 86.9406789 2.61252275 64.2244834 2.61252275 55.2814046 11.4120853 55.2814046 17.6821399"></polyline>
                <path d="M47.748096,49.4426034 L65.7311451,49.4426034" id="Path" stroke="#CFD7DF" stroke-width="0.6"></path>
                <path d="M78.0799577,18.5122874 L78.0799577,35.0224545" id="Path" stroke="#CFD7DF" stroke-width="0.6"></path>
                <path d="M55.2814046,32.7859397 L55.2814046,49.2912236" id="Path" stroke="#CFD7DF" stroke-width="0.6"></path>
                <path d="M23.0504709,11.2069901 L45.3306549,11.2069901" id="Path" stroke="#CFD7DF" stroke-width="0.6"></path>
                <path d="M20.8994811,39.3489875 L20.8994811,26.6330824" id="Path" stroke="#CFD7DF" stroke-width="0.6"></path>
                <path d="M37.81188,44.2224411 L24.6588686,44.2224411" id="Path" stroke="#CFD7DF" stroke-width="0.6"></path>
                <path d="M68.5409966,44.2224411 L61.9620686,44.2224411" id="Path" stroke="#FFFFFF" stroke-width="0.6"></path>
                <path d="M45.3306549,26.9016595 L45.3306549,38.5383729" id="Path" stroke="#CFD7DF" stroke-width="0.6"></path>
                <path d="M32.7105463,19.5963622 L43.4509611,19.5963622" id="Path" stroke="#CFD7DF" stroke-width="0.6"></path>
                <polyline id="Path" stroke="#CFD7DF" stroke-width="0.6" points="74.3254149 49.4426034 78.2107611 49.4426034 78.2107611 45.0330556"></polyline>
                <path d="M59.3508446,18.8394631 L59.3508446,38.118416" id="Path" stroke="#FFFFFF" stroke-width="0.6"></path>
            </g>
        </g>
        <path d="M55.25652,45 C58.9000284,43.0819384 65.8361125,36.388125 58.5826407,33.5553808 C57.2382583,33.0315172 54.4669212,33.5221196 53.3005856,34.356421 C51.7523526,35.4651272 51.1278986,38.2008596 54.0618002,37.6132453 C58.8355187,36.6569863 64.2620755,26.0217226 61.0159469,21.5758109 C59.2896671,19.2114951 55.5971313,18.3882808 53.5328205,20.7304225 C51.9174974,22.5597877 53.3392914,24.8104611 55.4242452,23.8930068 C57.5866107,22.9422913 58.4691036,18.0251795 58.5878014,15.9186379 C58.2401745,13.1302603 57.9337578,11.4907143 57.6685513,11" id="Path" stroke="#92A2B1" stroke-width="0.5" stroke-dasharray="1.6"></path>
        <path d="M40.9378123,22.8744574 C41.7735695,23.0735828 42.548954,23.0265789 43.0003981,22.798824 C43.4860834,22.6475571 44.0573719,22.1484618 44.4831351,21.4378493 C45.0990273,20.4118837 45.1756196,19.3513062 44.6529898,19.0692832 C44.1303599,18.7876875 43.2080984,19.3897639 42.5922061,20.4165841 C42.4480324,20.656731 42.3344956,20.8990144 42.2497935,21.1323243 C42.013709,21.0289159 41.7501413,20.9391813 41.4676509,20.872094 C40.2592946,20.5840887 39.1631235,20.799879 39.0162465,21.3523877 C38.86982,21.9057511 39.729456,22.5868794 40.9378123,22.8744574 Z" id="Path" fill="#92A2B1" fill-rule="nonzero"></path>
        <path d="M56.6577913,9.57867735 C57.0919818,9.90720791 57.8883116,10.0749471 58.7835352,9.96775282 C60.0766882,9.81341293 61.067509,9.15535928 60.9963997,8.49730563 C60.9257614,7.84024451 59.8219192,7.43131826 58.5278243,7.58516187 C58.2250212,7.62138956 57.9391713,7.68590463 57.679693,7.77076675 C57.6264788,7.48987809 57.5435964,7.19360506 57.4296332,6.8963395 C56.9422285,5.6244002 56.0747893,4.79612603 55.4927292,5.04376462 C54.9097272,5.29189948 54.8334378,6.52314467 55.3208425,7.79508397 C55.6570811,8.67497019 56.1769795,9.33352011 56.6577913,9.57867735 Z" id="Path" fill="#92A2B1" fill-rule="nonzero"></path>
        <path d="M43.2109019,24 C34.5166348,31.115272 38.838618,35.9138703 41.0247599,35.9138703 C43.2109019,35.9138703 46,33.7450188 46,32.1001442 C46,30.4552695 43.8799867,30.9574076 42.0944623,31.7195314 C40.3089379,32.4816552 37.6099317,35.7000875 39.2672759,40.4344603 C40.372172,43.5907089 42.0095933,45.7792221 44.1795397,47" id="Path-3" stroke="#92A2B1" stroke-width="0.5" stroke-dasharray="1.6"></path>
    </g>
</svg>
