<svg xmlns="http://www.w3.org/2000/svg" width="347" height="211" viewBox="0 0 347 211" version="1.1"><path d="M 92 14.500 C 92 17.525, 92.450 20, 93 20 C 93.550 20, 94 17.525, 94 14.500 C 94 11.475, 93.550 9, 93 9 C 92.450 9, 92 11.475, 92 14.500 M 77 19.051 C 81.933 23.276, 84.005 24.385, 83.979 22.785 C 83.954 21.280, 76.798 15.988, 74.840 16.027 C 74.103 16.042, 75.075 17.403, 77 19.051 M 70 33 C 70 33.556, 72.667 34, 76 34 C 79.333 34, 82 33.556, 82 33 C 82 32.444, 79.333 32, 76 32 C 72.667 32, 70 32.444, 70 33 M 94.174 35.314 L 92 37.629 92 107.814 C 92 176.667, 92.038 178.038, 94 180 C 95.941 181.941, 97.330 182, 141.250 181.996 L 186.500 181.991 193.765 185.673 C 199.779 188.721, 202.104 189.361, 207.265 189.390 C 219.860 189.460, 230.346 183.124, 235.681 172.220 C 238 167.480, 238.468 165.238, 238.437 159.006 C 238.364 143.831, 228.918 132.106, 214.227 128.955 L 209 127.834 208.980 99.167 L 208.961 70.500 191.730 51.831 L 174.500 33.163 135.424 33.081 L 96.349 33 94.174 35.314 M 95.571 36.571 C 94.173 37.970, 94 45.748, 94 107.137 C 94 152.784, 94.350 176.786, 95.035 178.066 C 96.035 179.933, 97.597 180, 140.443 180 L 184.816 180 181.320 173.185 C 178.259 167.220, 177.824 165.454, 177.824 159.017 C 177.824 152.652, 178.273 150.783, 181.162 145.126 C 185.773 136.095, 192.900 130.979, 204.250 128.550 L 207 127.962 207 99.981 L 207 72 192.556 72 C 178.733 72, 177.991 71.896, 175.306 69.589 L 172.500 67.178 172.181 51.089 L 171.862 35 134.503 35 C 101.873 35, 96.944 35.199, 95.571 36.571 M 174.045 50.316 C 174.002 63.647, 174.669 67.411, 177.400 69.235 C 178.005 69.639, 184.500 69.976, 191.834 69.985 L 205.168 70 202.111 66.250 C 200.430 64.188, 193.437 56.650, 186.572 49.500 L 174.091 36.500 174.045 50.316 M 109.500 60 C 109.094 60.657, 117.656 61, 134.441 61 C 150.814 61, 160 60.641, 160 60 C 160 59.360, 151.020 59, 135.059 59 C 119.510 59, 109.885 59.377, 109.500 60 M 109.500 72 C 109.094 72.657, 117.656 73, 134.441 73 C 150.814 73, 160 72.641, 160 72 C 160 71.360, 151.020 71, 135.059 71 C 119.510 71, 109.885 71.377, 109.500 72 M 109 85 C 109 85.606, 113.333 86, 120 86 C 126.667 86, 131 85.606, 131 85 C 131 84.394, 126.667 84, 120 84 C 113.333 84, 109 84.394, 109 85 M 129.571 110.571 C 128.707 111.436, 128 112.786, 128 113.571 C 128 115.077, 131.452 119, 132.777 119 C 134.586 119, 138 115.741, 138 114.015 C 138 111.616, 135.392 109, 133 109 C 131.979 109, 130.436 109.707, 129.571 110.571 M 164.571 110.571 C 162.272 112.871, 162.650 115.724, 165.500 117.592 C 167.816 119.109, 168.184 119.109, 170.500 117.592 C 171.875 116.691, 173 115.096, 173 114.048 C 173 111.620, 170.405 109, 168 109 C 166.979 109, 165.436 109.707, 164.571 110.571 M 200.803 131.351 C 187.909 134.955, 180 145.466, 180 159 C 180 184.239, 208.846 196.685, 227.753 179.604 C 239.154 169.304, 239.363 149.579, 228.188 138.692 C 221.165 131.850, 209.861 128.819, 200.803 131.351 M 144.243 135.230 C 145.200 138.100, 155.788 138.135, 156.743 135.271 C 157.015 134.454, 156.185 134.437, 153.665 135.211 C 151.199 135.968, 149.305 135.953, 147.032 135.161 C 144.620 134.320, 143.946 134.337, 144.243 135.230 M 214 156.116 C 204.235 168.164, 204.833 167.828, 199.996 163.997 C 197.747 162.216, 195.609 161.057, 195.245 161.422 C 194.493 162.174, 202.963 169.927, 204.500 169.893 C 205.615 169.868, 220.711 151.916, 221.630 149.522 C 222.935 146.121, 220.150 148.528, 214 156.116 M 43.500 201.001 C 43.155 201.558, 43.464 202.240, 44.187 202.516 C 46.821 203.522, 190.500 202.525, 190.500 201.500 C 190.500 200.105, 44.360 199.609, 43.500 201.001 M 199.243 201.229 C 199.778 202.834, 239.851 203.098, 240.250 201.500 C 240.409 200.864, 232.920 200.402, 219.660 200.229 C 203.159 200.015, 198.908 200.223, 199.243 201.229 M 248.526 200.958 C 248.167 201.539, 248.525 202.264, 249.322 202.570 C 251.596 203.443, 259.500 202.612, 259.500 201.500 C 259.500 200.134, 249.345 199.633, 248.526 200.958" stroke="none" fill="#3f3897" fill-rule="evenodd"/><path d="M 0 105.503 L 0 211.006 173.750 210.753 L 347.500 210.500 347.755 105.250 L 348.009 0 174.005 0 L 0 0 0 105.503 M 0.482 106 C 0.482 164.025, 0.602 187.762, 0.750 158.750 C 0.897 129.737, 0.897 82.262, 0.750 53.250 C 0.602 24.237, 0.482 47.975, 0.482 106 M 92 14.500 C 92 17.525, 92.450 20, 93 20 C 93.550 20, 94 17.525, 94 14.500 C 94 11.475, 93.550 9, 93 9 C 92.450 9, 92 11.475, 92 14.500 M 77 19.051 C 81.933 23.276, 84.005 24.385, 83.979 22.785 C 83.954 21.280, 76.798 15.988, 74.840 16.027 C 74.103 16.042, 75.075 17.403, 77 19.051 M 70 33 C 70 33.556, 72.667 34, 76 34 C 79.333 34, 82 33.556, 82 33 C 82 32.444, 79.333 32, 76 32 C 72.667 32, 70 32.444, 70 33 M 94.174 35.314 L 92 37.629 92 107.814 C 92 176.667, 92.038 178.038, 94 180 C 95.941 181.941, 97.330 182, 141.250 181.996 L 186.500 181.991 193.765 185.673 C 199.779 188.721, 202.104 189.361, 207.265 189.390 C 219.860 189.460, 230.346 183.124, 235.681 172.220 C 238 167.480, 238.468 165.238, 238.437 159.006 C 238.364 143.831, 228.918 132.106, 214.227 128.955 L 209 127.834 208.980 99.167 L 208.961 70.500 191.730 51.831 L 174.500 33.163 135.424 33.081 L 96.349 33 94.174 35.314 M 95.571 36.571 C 94.173 37.970, 94 45.748, 94 107.137 C 94 152.784, 94.350 176.786, 95.035 178.066 C 96.035 179.933, 97.597 180, 140.443 180 L 184.816 180 181.320 173.185 C 178.259 167.220, 177.824 165.454, 177.824 159.017 C 177.824 152.652, 178.273 150.783, 181.162 145.126 C 185.773 136.095, 192.900 130.979, 204.250 128.550 L 207 127.962 207 99.981 L 207 72 192.556 72 C 178.733 72, 177.991 71.896, 175.306 69.589 L 172.500 67.178 172.181 51.089 L 171.862 35 134.503 35 C 101.873 35, 96.944 35.199, 95.571 36.571 M 174.045 50.316 C 174.002 63.647, 174.669 67.411, 177.400 69.235 C 178.005 69.639, 184.500 69.976, 191.834 69.985 L 205.168 70 202.111 66.250 C 200.430 64.188, 193.437 56.650, 186.572 49.500 L 174.091 36.500 174.045 50.316 M 109.500 60 C 109.094 60.657, 117.656 61, 134.441 61 C 150.814 61, 160 60.641, 160 60 C 160 59.360, 151.020 59, 135.059 59 C 119.510 59, 109.885 59.377, 109.500 60 M 109.500 72 C 109.094 72.657, 117.656 73, 134.441 73 C 150.814 73, 160 72.641, 160 72 C 160 71.360, 151.020 71, 135.059 71 C 119.510 71, 109.885 71.377, 109.500 72 M 109 85 C 109 85.606, 113.333 86, 120 86 C 126.667 86, 131 85.606, 131 85 C 131 84.394, 126.667 84, 120 84 C 113.333 84, 109 84.394, 109 85 M 129.571 110.571 C 128.707 111.436, 128 112.786, 128 113.571 C 128 115.077, 131.452 119, 132.777 119 C 134.586 119, 138 115.741, 138 114.015 C 138 111.616, 135.392 109, 133 109 C 131.979 109, 130.436 109.707, 129.571 110.571 M 164.571 110.571 C 162.272 112.871, 162.650 115.724, 165.500 117.592 C 167.816 119.109, 168.184 119.109, 170.500 117.592 C 171.875 116.691, 173 115.096, 173 114.048 C 173 111.620, 170.405 109, 168 109 C 166.979 109, 165.436 109.707, 164.571 110.571 M 200.803 131.351 C 187.909 134.955, 180 145.466, 180 159 C 180 184.239, 208.846 196.685, 227.753 179.604 C 239.154 169.304, 239.363 149.579, 228.188 138.692 C 221.165 131.850, 209.861 128.819, 200.803 131.351 M 144.243 135.230 C 145.200 138.100, 155.788 138.135, 156.743 135.271 C 157.015 134.454, 156.185 134.437, 153.665 135.211 C 151.199 135.968, 149.305 135.953, 147.032 135.161 C 144.620 134.320, 143.946 134.337, 144.243 135.230 M 214 156.116 C 204.235 168.164, 204.833 167.828, 199.996 163.997 C 197.747 162.216, 195.609 161.057, 195.245 161.422 C 194.493 162.174, 202.963 169.927, 204.500 169.893 C 205.615 169.868, 220.711 151.916, 221.630 149.522 C 222.935 146.121, 220.150 148.528, 214 156.116 M 43.500 201.001 C 43.155 201.558, 43.464 202.240, 44.187 202.516 C 46.821 203.522, 190.500 202.525, 190.500 201.500 C 190.500 200.105, 44.360 199.609, 43.500 201.001 M 199.243 201.229 C 199.778 202.834, 239.851 203.098, 240.250 201.500 C 240.409 200.864, 232.920 200.402, 219.660 200.229 C 203.159 200.015, 198.908 200.223, 199.243 201.229 M 248.526 200.958 C 248.167 201.539, 248.525 202.264, 249.322 202.570 C 251.596 203.443, 259.500 202.612, 259.500 201.500 C 259.500 200.134, 249.345 199.633, 248.526 200.958" stroke="none" fill="#fafafa" fill-rule="evenodd"/></svg>